<?xml version="1.0" ?><svg height="24" id="svg8" version="1.1" viewBox="0 0 24 24" width="24" xmlns="http://www.w3.org/2000/svg" xmlns:cc="http://creativecommons.org/ns#" xmlns:dc="http://purl.org/dc/elements/1.1/" xmlns:rdf="http://www.w3.org/1999/02/22-rdf-syntax-ns#" xmlns:svg="http://www.w3.org/2000/svg"><defs id="defs2"/><g id="g1961" style="display:inline" transform="translate(0.02964562,-290.6996)"><path d="m 11.94531,294.59961 c -2.42361,-1.67841 -5.72559,-1.81913 -7.95508,0.29687 -2.55574,2.42649 -2.65967,6.49387 -0.23242,9.04883 l 7.5293,7.93164 c 0.39571,0.41605 1.05971,0.41423 1.45312,-0.004 2.2974,-2.45486 5.5246,-5.81693 7.40199,-7.8651 2.41953,-2.56287 2.41594,-6.73221 -0.14813,-9.15053 -2.2679,-2.26791 -5.3739,-2.0353 -8.04878,-0.25771 z m 6.67578,1.71289 c 1.77768,1.67663 1.85908,4.44389 0.18164,6.2207 -2.24663,2.40745 -4.52202,4.8164 -6.79296,7.20122 L 5.20703,302.5684 c -1.68278,-1.77132 -1.61174,-4.54038 0.16016,-6.22266 1.62874,-1.54583 4.20065,-1.37063 5.95508,0.18555 0.38094,0.337 0.95414,0.33442 1.33203,-0.006 1.98577,-1.554 4.00445,-2.00986 5.96679,-0.21279 z" id="path1954" style="color:#000000;font-style:normal;font-variant:normal;font-weight:normal;font-stretch:normal;font-size:medium;line-height:normal;font-family:sans-serif;font-variant-ligatures:normal;font-variant-position:normal;font-variant-caps:normal;font-variant-numeric:normal;font-variant-alternates:normal;font-variant-east-asian:normal;font-feature-settings:normal;font-variation-settings:normal;text-indent:0;text-align:start;text-decoration:none;text-decoration-line:none;text-decoration-style:solid;text-decoration-color:#000000;letter-spacing:normal;word-spacing:normal;text-transform:none;writing-mode:lr-tb;direction:ltr;text-orientation:mixed;dominant-baseline:auto;baseline-shift:baseline;text-anchor:start;white-space:normal;shape-padding:0;shape-margin:0;inline-size:0;clip-rule:nonzero;display:inline;overflow:visible;visibility:visible;opacity:1;isolation:auto;mix-blend-mode:normal;color-interpolation:sRGB;color-interpolation-filters:linearRGB;solid-color:#000000;solid-opacity:1;vector-effect:none;fill:#000000;fill-opacity:1;fill-rule:nonzero;stroke:none;stroke-linecap:round;stroke-linejoin:round;stroke-miterlimit:4;stroke-dasharray:none;stroke-dashoffset:0;stroke-opacity:1;color-rendering:auto;image-rendering:auto;shape-rendering:auto;text-rendering:auto;enable-background:accumulate;stop-color:#000000;stop-opacity:1"/></g></svg>